# xmcd
#
# Track frame offsets:
#	150
#	13218
#	27113
#	39873
#	52600
#	67053
#	77928
#	93088
#	106423
#	122670
#	136238
#
# Disc length: 2083 seconds
#
# Revision: 1
# Processed by: cddbd v1.4PL0 Copyright (c) Steve Scherf et al.
# Submitted via: audiograbber 1.81.03
#
DISCID=8208210b
DTITLE=Odd Jarle Hanssen - Odd Jarle Hanssen
DYEAR=1992
DGENRE=Country
TTITLE0=Stay by my side
TTITLE1=Jim Reeves
TTITLE2=Guitars, Cadillac's
TTITLE3=Nobody's in his right mind
TTITLE4=Drøm din drøm
TTITLE5=Travellin' Man
TTITLE6=Leavin' Eyes
TTITLE7=On The Other Hand
TTITLE8=Små Ting
TTITLE9=Poor Old Broken Heart
TTITLE10=Lay me Down (roll me out to sea)
EXTD=
EXTT0=
EXTT1=
EXTT2=
EXTT3=
EXTT4=
EXTT5=
EXTT6=
EXTT7=
EXTT8=
EXTT9=
EXTT10=
PLAYORDER=
